<?xml version="1.0" encoding="UTF-8"?>
<svg width="24px" height="24px" viewBox="0 0 24 24" version="1.1" xmlns="http://www.w3.org/2000/svg" xmlns:xlink="http://www.w3.org/1999/xlink">
    <title>bets_active</title>
    <g id="Page-1" stroke="none" stroke-width="1" fill="none" fill-rule="evenodd">
        <g id="bets---express-of-the-day" transform="translate(-64.000000, -440.000000)">
            <g id="bets_active" transform="translate(64.000000, 440.000000)">
                <rect id="Rectangle" x="0" y="0" width="24" height="24"></rect>
                <g id="Group-14" transform="translate(1.000000, 1.000000)" fill="#008EFF" fill-rule="nonzero">
                    <path d="M11,0 C17.0751322,0 22,4.92486775 22,11 C22,17.0751322 17.0751322,22 11,22 C4.92486775,22 0,17.0751322 0,11 C0,4.92486775 4.92486775,0 11,0 Z M6.31395758,14.747486 L3.66643186,16.2183858 C5.1158911,18.2517002 7.38986665,19.6566249 10.0003032,19.9451047 L10.0001915,16.9170737 C8.51564744,16.6680639 7.21594361,15.8739089 6.31395758,14.747486 Z M12.0008069,16.9169061 L12.0006955,19.9449943 C14.6115586,19.6561731 16.8857663,18.2505309 18.3349759,16.2164104 L15.6876207,14.7455142 C14.7857749,15.8727294 13.4858013,16.6675624 12.0008069,16.9169061 Z M11,7 C8.790861,7 7,8.790861 7,11 C7,13.209139 8.790861,15 11,15 C13.209139,15 15,13.209139 15,11 C15,8.790861 13.209139,7 11,7 Z M2,11 C2,12.2300695 2.24677013,13.4025028 2.69350527,14.4704947 L5.34129768,12.9996782 C5.12026719,12.3742113 5,11.7011506 5,11 C5,10.2901886 5.12325669,9.6091653 5.34953448,8.97716575 L2.70266426,7.50769038 C2.2501442,8.58152371 2,9.7615497 2,11 Z M19.3064947,7.52950532 L16.6587023,9.00032181 C16.8797328,9.62578872 17,10.2988494 17,11 C17,11.7003975 16.879991,12.3727654 16.6594142,12.9976626 L19.3073246,14.4685101 C19.7535355,13.4010504 20,12.2293076 20,11 C20,9.76993048 19.7532299,8.59749721 19.3064947,7.52950532 Z M12.0006955,2.05500569 L12.0008069,5.08309386 C13.4849353,5.33229215 14.7842586,6.12634367 15.6860424,7.25251402 L18.3335681,5.78161419 C16.8842937,3.74855911 14.6107133,2.3437334 12.0006955,2.05500569 Z M3.67986739,5.76281766 L6.32899152,7.23381563 C7.23035608,6.11730495 8.52387528,5.33055597 10.0001915,5.08292631 L10.0003032,2.05489527 C7.39791821,2.34248528 5.12992187,3.73964381 3.67986739,5.76281766 Z" id="Combined-Shape"></path>
                </g>
            </g>
        </g>
    </g>
</svg>