<?xml version="1.0" encoding="UTF-8"?>
<svg width="24px" height="24px" viewBox="0 0 24 24" version="1.1" xmlns="http://www.w3.org/2000/svg" xmlns:xlink="http://www.w3.org/1999/xlink">
    <title>transactions_active</title>
    <g id="Page-1" stroke="none" stroke-width="1" fill="none" fill-rule="evenodd">
        <g id="transactions---withdrawals" transform="translate(-64.000000, -344.000000)">
            <g id="transactions_active" transform="translate(64.000000, 344.000000)">
                <rect id="Rectangle" x="0" y="0" width="24" height="24"></rect>
                <g id="Group-4" transform="translate(2.000000, 1.000000)" fill="#008EFF" fill-rule="nonzero">
                    <path d="M4.38710056,12.2097046 C4.77939176,11.9046797 5.34662282,11.9324093 5.70710678,12.2928932 L5.70710678,12.2928932 L5.79029539,12.3871006 C6.09532028,12.7793918 6.06759074,13.3466228 5.70710678,13.7071068 L5.70710678,13.7071068 L3.415,16 L19,16 C19.5522847,16 20,16.4477153 20,17 C20,17.5128358 19.6139598,17.9355072 19.1166211,17.9932723 L19,18 L3.415,18 L5.70710678,20.2928932 L5.79029539,20.3871006 C6.09532028,20.7793918 6.06759074,21.3466228 5.70710678,21.7071068 C5.31658249,22.0976311 4.68341751,22.0976311 4.29289322,21.7071068 L4.29289322,21.7071068 L0.292893219,17.7071068 L0.219688767,17.625449 C0.217372104,17.6225624 0.215071126,17.6196628 0.212785965,17.6167501 C0.20517454,17.6070733 0.200717862,17.6012086 0.196334578,17.5953066 C0.178490093,17.5711307 0.1617187,17.546275 0.146067433,17.5206602 C0.138606922,17.5086131 0.131498828,17.4963944 0.124671174,17.4840621 C0.11379392,17.4642939 0.103376643,17.4438914 0.0936537803,17.4230991 C0.0856790475,17.4060985 0.0781964242,17.3887956 0.0712254916,17.371336 C0.0633157362,17.3515792 0.0561224864,17.3317977 0.0495466818,17.3117364 C0.0447287157,17.2968513 0.0400977346,17.2814633 0.0358451423,17.265993 C0.0298336259,17.2444365 0.0246397952,17.2227461 0.0201651536,17.2007941 C0.0167021706,17.1833753 0.0136280806,17.165949 0.0110178009,17.1484669 C0.00810097727,17.1294204 0.0057479633,17.1096949 0.00397747606,17.0898018 C0.00189498016,17.0659949 0.000634893312,17.042681 0.000186147798,17.0193545 C6.12825798e-05,17.0129086 0,17.0064615 0,17 L0.000167545257,16.9816379 C0.000599315847,16.9579802 0.00186560354,16.9343349 0.00396640833,16.9107499 L0,17 C0,16.9493797 0.00376118706,16.8996379 0.0110193427,16.8510388 C0.0136280806,16.834051 0.0167021706,16.8166247 0.020240071,16.7992742 C0.0246397952,16.7772539 0.0298336259,16.7555635 0.0357209664,16.7341604 C0.0400977346,16.7185367 0.0447287157,16.7031487 0.0497380859,16.6878575 C0.0561224864,16.6682023 0.0633157362,16.6484208 0.0711039637,16.6289415 C0.0781964242,16.6112044 0.0856790475,16.5939015 0.0936733617,16.5767785 C0.103376643,16.5561086 0.11379392,16.5357061 0.12487577,16.515723 C0.131498828,16.5036056 0.138606922,16.4913869 0.145995454,16.4792912 C0.1617187,16.453725 0.178490093,16.4288693 0.196313506,16.4048407 C0.225312953,16.3656744 0.257499166,16.3282873 0.292893219,16.2928932 L0.212785965,16.3832499 C0.237668838,16.3515341 0.264426908,16.3213595 0.292893219,16.2928932 L4.29289322,12.2928932 Z M15.6128994,0.209704612 L15.7071068,0.292893219 L19.7071068,4.29289322 C19.7355731,4.32135953 19.7623312,4.35153408 19.787214,4.38324992 L19.7071068,4.29289322 C19.7425008,4.32828727 19.774687,4.36567442 19.8036654,4.40469339 C19.8215099,4.42886931 19.8382813,4.45372505 19.8539326,4.47933981 C19.8613931,4.49138689 19.8685012,4.50360556 19.8753288,4.5159379 C19.8862061,4.53570605 19.8966234,4.5561086 19.9063462,4.57690085 C19.914321,4.5939015 19.9218036,4.61120435 19.9287745,4.62866398 C19.9366843,4.6484208 19.9438775,4.66820232 19.9504533,4.68826359 C19.9552713,4.70314866 19.9599023,4.71853672 19.9641549,4.73400703 C19.9701664,4.75556352 19.9753602,4.77725392 19.9798348,4.7992059 C19.9832978,4.81662474 19.9863719,4.83405099 19.9889822,4.85153313 C19.9920328,4.87147534 19.9944666,4.89211395 19.9962623,4.91293499 C19.9978436,4.93173451 19.9989053,4.94973363 19.9994829,4.96774538 C19.9998183,4.97778921 20,4.98887338 20,5 L19.9994506,5.03324678 C19.9988772,5.05059097 19.997855,5.06792309 19.996384,5.08522423 L20,5 C20,5.05062028 19.9962388,5.10036209 19.9889807,5.14896122 C19.9863719,5.16594901 19.9832978,5.18337526 19.9797599,5.20072576 C19.9753602,5.22274608 19.9701664,5.24443648 19.964279,5.26583961 C19.9599023,5.28146328 19.9552713,5.29685134 19.9502619,5.31214252 C19.9438775,5.33179768 19.9366843,5.3515792 19.928896,5.37105852 C19.9218036,5.38879565 19.914321,5.4060985 19.9063266,5.42322155 C19.8966234,5.4438914 19.8862061,5.46429395 19.8751242,5.48427695 C19.8685012,5.49639444 19.8613931,5.50861311 19.8540045,5.52070875 C19.8382813,5.54627495 19.8215099,5.57113069 19.8036865,5.5951593 C19.7992821,5.60120864 19.7948255,5.60707334 19.7902954,5.61289944 C19.7849289,5.61966276 19.7826279,5.62256244 19.7803112,5.62544899 L19.7071068,5.70710678 L15.7071068,9.70710678 C15.3165825,10.0976311 14.6834175,10.0976311 14.2928932,9.70710678 C13.9324093,9.34662282 13.9046797,8.77939176 14.2097046,8.38710056 L14.2928932,8.29289322 L16.585,6 L1,6 C0.44771525,6 0,5.55228475 0,5 C0,4.48716416 0.38604019,4.06449284 0.883378875,4.00672773 L1,4 L16.585,4 L14.2928932,1.70710678 C13.9324093,1.34662282 13.9046797,0.779391764 14.2097046,0.387100557 L14.2928932,0.292893219 C14.6533772,-0.0675907428 15.2206082,-0.0953202783 15.6128994,0.209704612 Z" id="Combined-Shape"></path>
                </g>
            </g>
        </g>
    </g>
</svg>