<svg width="24" height="24" viewBox="0 0 24 24" fill="none" xmlns="http://www.w3.org/2000/svg">
<g id="approve">
<path id="Combined Shape" fill-rule="evenodd" clip-rule="evenodd" d="M12 0C18.6274 0 24 5.37258 24 12C24 18.6274 18.6274 24 12 24C5.37258 24 0 18.6274 0 12C0 5.37258 5.37258 0 12 0ZM12 2C6.47715 2 2 6.47715 2 12C2 17.5228 6.47715 22 12 22C17.5228 22 22 17.5228 22 12C22 6.47715 17.5228 2 12 2ZM17.2071 8.29289C16.8166 7.90237 16.1834 7.90237 15.7929 8.29289L10.5 13.585L8.20711 11.2929L8.1129 11.2097C7.72061 10.9047 7.15338 10.9324 6.79289 11.2929C6.40237 11.6834 6.40237 12.3166 6.79289 12.7071L9.79289 15.7071L9.8871 15.7903C10.2794 16.0953 10.8466 16.0676 11.2071 15.7071L17.2071 9.70711L17.2903 9.6129C17.5953 9.22061 17.5676 8.65338 17.2071 8.29289Z" fill="#25AF67"/>
</g>
</svg>
