<svg width="24" height="24" viewBox="0 0 24 24" fill="none" xmlns="http://www.w3.org/2000/svg">
<path d="M9.29012 21.0002C8.46394 20.9962 7.6468 20.8279 6.88626 20.5052C6.12573 20.1824 5.43698 19.7116 4.86012 19.1202C4.28758 18.5775 3.82767 17.9273 3.5067 17.2067C3.18573 16.4861 3.01 15.7093 2.98956 14.9208C2.96913 14.1322 3.10439 13.3474 3.38761 12.6111C3.67084 11.8749 4.09646 11.2017 4.64012 10.6302L12.0001 3.20016C12.3932 2.80783 12.8616 2.49923 13.3772 2.29298C13.8929 2.08674 14.4449 1.98712 15.0001 2.00016C15.5948 2.00218 16.1832 2.12259 16.7309 2.35437C17.2786 2.58615 17.7746 2.92466 18.1901 3.35016C19.0171 4.14639 19.4967 5.23667 19.5248 6.38433C19.5529 7.53199 19.1272 8.64442 18.3401 9.48015L10.9401 16.9102C10.7031 17.1488 10.4211 17.3379 10.1103 17.4667C9.79963 17.5954 9.46645 17.6612 9.13012 17.6602C8.76679 17.6606 8.40705 17.5883 8.07214 17.4475C7.73722 17.3067 7.43391 17.1001 7.18012 16.8402C6.67285 16.349 6.37989 15.6775 6.36491 14.9716C6.34993 14.2657 6.61414 13.5824 7.10012 13.0702L13.9301 6.21016C14.1245 6.08106 14.3579 6.024 14.5899 6.04887C14.8219 6.07374 15.038 6.17896 15.2006 6.34632C15.3632 6.51367 15.4621 6.73263 15.4803 6.96526C15.4985 7.1979 15.4348 7.42957 15.3001 7.62016L8.47012 14.4802C8.35623 14.6174 8.30079 14.7938 8.31575 14.9715C8.33072 15.1492 8.41488 15.3139 8.55012 15.4302C8.69083 15.5718 8.88052 15.6542 9.08012 15.6602C9.15405 15.6612 9.22747 15.6476 9.29612 15.6202C9.36477 15.5927 9.42731 15.5519 9.48012 15.5002L16.8701 8.07016C17.2849 7.60934 17.5017 7.00379 17.4737 6.38441C17.4456 5.76502 17.1749 5.18157 16.7201 4.76016C16.2977 4.3216 15.7233 4.06162 15.115 4.03371C14.5067 4.00581 13.9109 4.21211 13.4501 4.61016L6.06012 12.0002C5.70076 12.3861 5.42128 12.8394 5.23775 13.3337C5.05421 13.8281 4.97025 14.354 4.9907 14.8809C5.01115 15.4079 5.13559 15.9256 5.35688 16.4043C5.57817 16.883 5.89194 17.3132 6.28012 17.6702C6.6694 18.0737 7.13519 18.3956 7.65028 18.6171C8.16538 18.8386 8.71944 18.9552 9.28012 18.9602C9.76354 18.9641 10.243 18.8725 10.6909 18.6905C11.1388 18.5086 11.5463 18.24 11.8901 17.9002L19.2801 10.4702C19.3727 10.3769 19.4827 10.3028 19.604 10.2521C19.7252 10.2014 19.8552 10.1751 19.9866 10.1746C20.118 10.1741 20.2482 10.1996 20.3697 10.2494C20.4913 10.2993 20.6019 10.3726 20.6951 10.4652C20.7884 10.5577 20.8624 10.6678 20.9132 10.789C20.9639 10.9102 20.9902 11.0402 20.9907 11.1716C20.9911 11.303 20.9657 11.4332 20.9159 11.5548C20.866 11.6764 20.7927 11.7869 20.7001 11.8802L13.3101 19.3102C12.7854 19.8441 12.1598 20.2685 11.4697 20.5586C10.7796 20.8487 10.0387 20.9988 9.29012 21.0002Z" fill="#808191"/>
</svg>
