<svg width="24" height="24" viewBox="0 0 24 24" fill="none" xmlns="http://www.w3.org/2000/svg">
<path d="M6.66667 8.33333V7.42857C6.66667 5.98882 7.22857 4.60805 8.22876 3.58999C9.22896 2.57194 10.5855 2 12 2C13.4145 2 14.771 2.57194 15.7712 3.58999C16.7714 4.60805 17.3333 5.98882 17.3333 7.42857V8.33333H19.1111C19.3469 8.33333 19.573 8.42866 19.7397 8.59833C19.9064 8.76801 20 8.99814 20 9.2381V20.0952C20 20.3352 19.9064 20.5653 19.7397 20.735C19.573 20.9047 19.3469 21 19.1111 21H4.88889C4.65314 21 4.42705 20.9047 4.26035 20.735C4.09365 20.5653 4 20.3352 4 20.0952V9.2381C4 8.99814 4.09365 8.76801 4.26035 8.59833C4.42705 8.42866 4.65314 8.33333 4.88889 8.33333H6.66667ZM18.2222 10.1429H5.77778V19.1905H18.2222V10.1429ZM8.44444 8.33333H15.5556V7.42857C15.5556 6.46874 15.181 5.54822 14.5142 4.86952C13.8474 4.19081 12.943 3.80952 12 3.80952C11.057 3.80952 10.1526 4.19081 9.48584 4.86952C8.81905 5.54822 8.44444 6.46874 8.44444 7.42857V8.33333Z" fill="#FA2B76"/>
</svg>
