<?xml version="1.0" encoding="UTF-8"?>
<svg width="24px" height="24px" viewBox="0 0 24 24" version="1.1" xmlns="http://www.w3.org/2000/svg" xmlns:xlink="http://www.w3.org/1999/xlink">
    <title>B4C5F641-C40C-42CB-981B-96516000BD3A</title>
    <g id="Page-1" stroke="none" stroke-width="1" fill="none" fill-rule="evenodd">
        <g id="clients" transform="translate(-1302.000000, -382.000000)">
            <g id="Group-13" transform="translate(354.000000, 220.000000)">
                <g id="Group-8" transform="translate(32.000000, 162.000000)">
                    <g id="Group-19" transform="translate(916.000000, 0.000000)">
                        <rect id="Rectangle" x="0" y="0" width="24" height="24"></rect>
                        <path d="M9,10 L15,10 L15,8 C15,6.34314575 13.6568542,5 12,5 C10.4023191,5 9.09633912,6.24891996 9.00509269,7.82372721 L9,8 L9,10 Z M17,12 L7,12 C6.48716416,12 6.06449284,12.3860402 6.00672773,12.8833789 L6,13 L6,18 C6,18.5128358 6.38604019,18.9355072 6.88337887,18.9932723 L7,19 L17,19 C17.5128358,19 17.9355072,18.6139598 17.9932723,18.1166211 L18,18 L18,13 C18,12.4871642 17.6139598,12.0644928 17.1166211,12.0067277 L17,12 Z M12,14 C12.5522847,14 13,14.4477153 13,15 C13,15.5522847 12.5522847,16 12,16 C11.4477153,16 11,15.5522847 11,15 C11,14.4477153 11.4477153,14 12,14 Z M12,3 C14.6887547,3 16.8818181,5.12230671 16.9953805,7.78311038 L17,8 L17,10 C18.6568542,10 20,11.3431458 20,13 L20,18 C20,19.6568542 18.6568542,21 17,21 L7,21 C5.34314575,21 4,19.6568542 4,18 L4,13 C4,11.3431458 5.34314575,10 7,10 L7,8 C7,5.23857625 9.23857625,3 12,3 Z" id="Combined-Shape" fill="#E9E9EA" fill-rule="nonzero" opacity="0.300000012"></path>
                    </g>
                </g>
            </g>
        </g>
    </g>
</svg>