<svg width="24" height="24" viewBox="0 0 24 24" fill="none" xmlns="http://www.w3.org/2000/svg">
<g opacity="0.5">
<path d="M10 2H14C16.1217 2 18.1566 2.84285 19.6569 4.34315C21.1571 5.84344 22 7.87827 22 10C22 12.1217 21.1571 14.1566 19.6569 15.6569C18.1566 17.1571 16.1217 18 14 18V21.5C9 19.5 2 16.5 2 10C2 7.87827 2.84285 5.84344 4.34315 4.34315C5.84344 2.84285 7.87827 2 10 2ZM12 16H14C14.7879 16 15.5681 15.8448 16.2961 15.5433C17.0241 15.2417 17.6855 14.7998 18.2426 14.2426C18.7998 13.6855 19.2417 13.0241 19.5433 12.2961C19.8448 11.5681 20 10.7879 20 10C20 9.21207 19.8448 8.43185 19.5433 7.7039C19.2417 6.97595 18.7998 6.31451 18.2426 5.75736C17.6855 5.20021 17.0241 4.75825 16.2961 4.45672C15.5681 4.15519 14.7879 4 14 4H10C8.4087 4 6.88258 4.63214 5.75736 5.75736C4.63214 6.88258 4 8.4087 4 10C4 13.61 6.462 15.966 12 18.48V16Z" fill="#E9E9EA"/>
</g>
</svg>
