<?xml version="1.0" encoding="UTF-8"?>
<svg width="16px" height="16px" viewBox="0 0 16 16" version="1.1" xmlns="http://www.w3.org/2000/svg" xmlns:xlink="http://www.w3.org/1999/xlink">
    <title>87C5D3CE-FCB7-4565-AFD2-E3FE148CA203</title>
    <g id="Page-1" stroke="none" stroke-width="1" fill="none" fill-rule="evenodd" opacity="0.300000012">
        <g id="clients---block-popup" transform="translate(-672.000000, -32.000000)">
            <g id="close" transform="translate(672.000000, 32.000000)">
                <rect id="Rectangle" x="0" y="0" width="16" height="16"></rect>
                <path d="M1.79289322,1.79289322 C2.18341751,1.40236893 2.81658249,1.40236893 3.20710678,1.79289322 L3.20710678,1.79289322 L8,6.585 L12.7928932,1.79289322 C13.1834175,1.40236893 13.8165825,1.40236893 14.2071068,1.79289322 C14.5675907,2.15337718 14.5953203,2.72060824 14.2902954,3.11289944 L14.2071068,3.20710678 L9.415,8 L14.2071068,12.7928932 L14.2902954,12.8871006 C14.5953203,13.2793918 14.5675907,13.8466228 14.2071068,14.2071068 C13.8165825,14.5976311 13.1834175,14.5976311 12.7928932,14.2071068 L12.7928932,14.2071068 L8,9.415 L3.20710678,14.2071068 C2.81658249,14.5976311 2.18341751,14.5976311 1.79289322,14.2071068 C1.43240926,13.8466228 1.40467972,13.2793918 1.70970461,12.8871006 L1.79289322,12.7928932 L6.585,8 L1.79289322,3.20710678 L1.70970461,3.11289944 C1.40467972,2.72060824 1.43240926,2.15337718 1.79289322,1.79289322 Z" id="Combined-Shape" fill="#E9E9EA" fill-rule="nonzero"></path>
            </g>
        </g>
    </g>
</svg>