<svg width="24" height="24" viewBox="0 0 24 24" fill="none" xmlns="http://www.w3.org/2000/svg">
<g id="approve" opacity="0.5">
<path id="Combined Shape" fill-rule="evenodd" clip-rule="evenodd" d="M24 12C24 5.37258 18.6274 0 12 0C5.37258 0 0 5.37258 0 12C0 18.6274 5.37258 24 12 24C18.6274 24 24 18.6274 24 12ZM2 12C2 6.47715 6.47715 2 12 2C17.5228 2 22 6.47715 22 12C22 17.5228 17.5228 22 12 22C6.47715 22 2 17.5228 2 12Z" fill="#E9E9EA"/>
<g id="cube 1">
<g id="Layer 2">
<g id="cube">
<path id="Vector" d="M11.5 11.8866L6 9.57324V14.7266C6.0029 14.9415 6.0672 15.1511 6.18533 15.3306C6.30345 15.5102 6.47047 15.6522 6.66667 15.7399L11.46 17.9999H11.5V11.8866Z" fill="#E9E9EA"/>
<path id="Vector_2" d="M11.9995 11.0001L17.6728 8.62009C17.5774 8.51401 17.4618 8.4279 17.3328 8.36675L12.5328 6.12009C12.3661 6.04118 12.184 6.00024 11.9995 6.00024C11.8151 6.00024 11.6329 6.04118 11.4662 6.12009L6.66617 8.36675C6.53721 8.4279 6.42165 8.51401 6.32617 8.62009L11.9995 11.0001Z" fill="#E9E9EA"/>
<path id="Vector_3" d="M12.5 11.8866V17.9999H12.5333L17.3333 15.7399C17.5285 15.6527 17.6949 15.5117 17.8129 15.3334C17.9309 15.1552 17.9958 14.947 18 14.7332V9.57324L12.5 11.8866Z" fill="#E9E9EA"/>
</g>
</g>
</g>
</g>
</svg>
