<svg width="24" height="24" viewBox="0 0 24 24" fill="none" xmlns="http://www.w3.org/2000/svg">
<g opacity="0.5">
<path fill-rule="evenodd" clip-rule="evenodd" d="M24 12C24 5.37258 18.6274 0 12 0C5.37258 0 0 5.37258 0 12C0 18.6274 5.37258 24 12 24C18.6274 24 24 18.6274 24 12ZM2 12C2 6.47715 6.47715 2 12 2C17.5228 2 22 6.47715 22 12C22 17.5228 17.5228 22 12 22C6.47715 22 2 17.5228 2 12Z" fill="#E9E9EA"/>
</g>
<path opacity="0.5" d="M12.525 9.00049L14.9995 11.4756L9.2245 17.25H6.75V14.7749L12.525 9.00049ZM13.3498 8.17565L14.5871 6.93782C14.6965 6.82846 14.8448 6.76703 14.9995 6.76703C15.1542 6.76703 15.3025 6.82846 15.4119 6.93782L17.0622 8.58807C17.1715 8.69746 17.233 8.84581 17.233 9.00049C17.233 9.15517 17.1715 9.30351 17.0622 9.4129L15.8243 10.6502L13.3498 8.17565Z" fill="#E9E9EA"/>
</svg>
