<svg width="18" height="18" viewBox="0 0 18 18" fill="none" xmlns="http://www.w3.org/2000/svg">
<path d="M4.33333 11.8947V16H3V3H9.25467C9.37844 3.00007 9.49975 3.0355 9.60502 3.10233C9.71028 3.16915 9.79534 3.26473 9.85067 3.37837L10.3333 4.36842H14.3333C14.5101 4.36842 14.6797 4.44051 14.8047 4.56882C14.9298 4.69714 15 4.87117 15 5.05263V12.5789C15 12.7604 14.9298 12.9344 14.8047 13.0628C14.6797 13.1911 14.5101 13.2632 14.3333 13.2632H10.0787C9.95489 13.2631 9.83358 13.2277 9.72832 13.1608C9.62305 13.094 9.53799 12.9984 9.48267 12.8848L9 11.8947H4.33333ZM4.33333 4.36842V10.5263H9.824L10.4907 11.8947H13.6667V5.73684H9.50933L8.84267 4.36842H4.33333Z" fill="#356BF5"/>
</svg>
