<?xml version="1.0" encoding="UTF-8"?>
<svg width="240px" height="56px" viewBox="0 0 240 56" version="1.1" xmlns="http://www.w3.org/2000/svg" xmlns:xlink="http://www.w3.org/1999/xlink">
    <title>916F42AA-4FAA-4181-A62F-354A913CD5C8</title>
    <g id="Page-1" stroke="none" stroke-width="1" fill="none" fill-rule="evenodd">
        <g id="sign-in" transform="translate(-600.000000, -104.000000)">
            <g id="logotype" transform="translate(600.000000, 104.000000)">
                <rect id="Rectangle" x="0" y="0" width="240" height="56"></rect>
                <path d="M52.8398437,44.421875 C53.8867187,44.421875 54.8710937,44.2539062 55.7929687,43.9179688 C56.7148437,43.5820312 57.5390625,43.1171875 58.265625,42.5234375 C58.9921875,41.9296875 59.5976562,41.2304688 60.0820312,40.4257812 C60.5664062,39.6210938 60.8945312,38.7421875 61.0664062,37.7890625 C61.2226562,36.9296875 61.203125,36.1367188 61.0078125,35.4101562 C60.8125,34.6835938 60.5,34.015625 60.0703125,33.40625 C59.640625,32.796875 59.1210937,32.234375 58.5117187,31.71875 C57.9023437,31.203125 57.2539062,30.7265625 56.5664062,30.2890625 C55.9101562,29.8359375 55.3515625,29.453125 54.890625,29.140625 C54.4296875,28.828125 54.0664062,28.5273438 53.8007812,28.2382812 C53.5351562,27.9492188 53.3554687,27.6484375 53.2617187,27.3359375 C53.1679687,27.0234375 53.1601562,26.640625 53.2382812,26.1875 C53.3164062,25.78125 53.453125,25.3945312 53.6484375,25.0273438 C53.84375,24.6601562 54.0898437,24.34375 54.3867187,24.078125 C54.6835937,23.8125 55.0195312,23.6015625 55.3945312,23.4453125 C55.7695312,23.2890625 56.1679687,23.2109375 56.5898437,23.2109375 C57.4179687,23.2109375 58.0585937,23.484375 58.5117187,24.03125 C58.9648437,24.578125 59.1132812,25.2734375 58.9570312,26.1171875 L58.8632812,26.6796875 C58.7851562,27.1171875 58.9648437,27.3359375 59.4023437,27.3359375 L61.8164062,27.3359375 C62.0820312,27.3359375 62.28125,27.3007812 62.4140625,27.2304688 C62.546875,27.1601562 62.6289062,27.015625 62.6601562,26.796875 L62.7773437,26.1875 C62.9492187,25.234375 62.9492187,24.3515625 62.7773437,23.5390625 C62.6054687,22.7265625 62.2773437,22.0273438 61.7929687,21.4414062 C61.3085937,20.8554688 60.6679687,20.3984375 59.8710937,20.0703125 C59.0742187,19.7421875 58.1367187,19.578125 57.0585937,19.578125 C56.0585937,19.578125 55.1132812,19.7460938 54.2226562,20.0820312 C53.3320312,20.4179688 52.53125,20.8789062 51.8203125,21.4648438 C51.109375,22.0507812 50.515625,22.7382812 50.0390625,23.5273438 C49.5625,24.3164062 49.2382812,25.171875 49.0664062,26.09375 C48.9257812,26.890625 48.9179687,27.6132812 49.0429687,28.2617188 C49.1679687,28.9101562 49.3828125,29.4960938 49.6875,30.0195312 C49.9921875,30.5429688 50.3710937,31.0234375 50.8242187,31.4609375 C51.2773437,31.8984375 51.7695312,32.3046875 52.3007812,32.6796875 C52.9570312,33.1953125 53.5820312,33.6601562 54.1757812,34.0742188 C54.7695312,34.4882812 55.2773437,34.890625 55.6992187,35.28125 C56.1210937,35.671875 56.4375,36.0703125 56.6484375,36.4765625 C56.859375,36.8828125 56.9257812,37.3203125 56.8476562,37.7890625 C56.7695312,38.2109375 56.6210937,38.6015625 56.4023437,38.9609375 C56.1835937,39.3203125 55.9140625,39.6367188 55.59375,39.9101562 C55.2734375,40.1835938 54.9179687,40.3945312 54.5273437,40.5429688 C54.1367187,40.6914062 53.7382812,40.765625 53.3320312,40.765625 C52.8945312,40.765625 52.5039062,40.6953125 52.1601562,40.5546875 C51.8164062,40.4140625 51.5273437,40.21875 51.2929687,39.96875 C51.0585937,39.71875 50.8945312,39.4179688 50.8007812,39.0664062 C50.7070312,38.7148438 50.6992187,38.3359375 50.7773437,37.9296875 L50.8710937,37.296875 C50.9648437,36.828125 50.8164062,36.59375 50.4257812,36.59375 L47.9179687,36.59375 C47.3085937,36.59375 46.9648437,36.8203125 46.8867187,37.2734375 L46.7929687,37.8125 C46.6367187,38.671875 46.6132812,39.5 46.7226562,40.296875 C46.8320312,41.09375 47.1171875,41.796875 47.578125,42.40625 C48.0390625,43.015625 48.6953125,43.5039062 49.546875,43.8710938 C50.3984375,44.2382812 51.4960937,44.421875 52.8398437,44.421875 Z M69.9726562,44.421875 C70.9726562,44.421875 71.9648437,44.2109375 72.9492187,43.7890625 C73.9335938,43.3671875 74.8085938,42.65625 75.5742188,41.65625 C75.9492188,42.640625 76.53125,43.3476562 77.3203125,43.7773438 C78.109375,44.2070312 78.9960938,44.421875 79.9804688,44.421875 L80.1679688,44.421875 C80.9648438,44.421875 81.8007812,44.3125 82.6757812,44.09375 C83.5507812,43.875 84.3867188,43.4804688 85.1835938,42.9101562 C85.9804688,42.3398438 86.6875,41.5664062 87.3046875,40.5898438 C87.921875,39.6132812 88.3632812,38.3671875 88.6289062,36.8515625 L88.6757812,36.546875 L88.6523438,36.546875 L91.4648438,20.7734375 C91.4960938,20.6015625 91.4726562,20.4296875 91.3945312,20.2578125 C91.3164062,20.0859375 91.1679688,20 90.9492188,20 L87.9960938,20 C87.5742188,20 87.3242188,20.2578125 87.2460938,20.7734375 L84.3398438,37.1328125 C84.2148438,37.8515625 84.0117188,38.4414062 83.7304688,38.9023438 C83.4492188,39.3632812 83.1367188,39.7226562 82.7929688,39.9804688 C82.4492188,40.2382812 82.09375,40.4140625 81.7265625,40.5078125 C81.359375,40.6015625 81.0195312,40.6484375 80.7070312,40.6484375 L80.6367188,40.6484375 C80.3242188,40.6484375 80.0117188,40.6015625 79.6992188,40.5078125 C79.3867188,40.4140625 79.1171875,40.2382812 78.890625,39.9804688 C78.6640625,39.7226562 78.5039062,39.359375 78.4101562,38.890625 C78.3164062,38.421875 78.3320312,37.8203125 78.4570312,37.0859375 L81.3398438,20.7734375 C81.3710938,20.6015625 81.3476562,20.4296875 81.2695312,20.2578125 C81.1914062,20.0859375 81.0429688,20 80.8242188,20 L77.8710937,20 C77.4492188,20 77.1914062,20.2578125 77.0976562,20.7734375 L74.2382812,36.9453125 C74.1132812,37.6796875 73.9101562,38.28125 73.6289062,38.75 C73.3476562,39.21875 73.0390625,39.59375 72.703125,39.875 C72.3671875,40.15625 72.0195312,40.3515625 71.6601562,40.4609375 C71.3007812,40.5703125 70.9804687,40.6328125 70.6992187,40.6484375 L70.4648437,40.6484375 C70.1835937,40.6484375 69.890625,40.6054688 69.5859375,40.5195312 C69.28125,40.4335938 69.015625,40.265625 68.7890625,40.015625 C68.5625,39.765625 68.3984375,39.4179688 68.296875,38.9726562 C68.1953125,38.5273438 68.1914062,37.953125 68.2851562,37.25 C68.2851562,37.21875 68.2890625,37.1992188 68.296875,37.1914062 C68.3046875,37.1835938 68.3085937,37.1640625 68.3085937,37.1328125 L71.2148437,20.7734375 C71.2460937,20.6015625 71.2304688,20.4296875 71.1679688,20.2578125 C71.1054688,20.0859375 70.9492187,20 70.6992187,20 L67.7695312,20 C67.5507812,20 67.3789062,20.0703125 67.2539062,20.2109375 C67.1289062,20.3515625 67.0507812,20.5390625 67.0195312,20.7734375 L64.1367187,37.0390625 C64.1210937,37.0859375 64.1132812,37.1484375 64.1132812,37.2265625 C63.8945312,38.6640625 63.921875,39.8476562 64.1953125,40.7773438 C64.46875,41.7070312 64.8945312,42.4414062 65.4726562,42.9804688 C66.0507812,43.5195312 66.7265625,43.8945312 67.5,44.1054688 C68.2734375,44.3164062 69.0429687,44.421875 69.8085937,44.421875 L69.9726562,44.421875 Z M97.9570312,44.421875 C98.9726562,44.421875 99.9296875,44.25 100.828125,43.90625 C101.726562,43.5625 102.527344,43.0898438 103.230469,42.4882812 C103.933594,41.8867188 104.527344,41.1835938 105.011719,40.3789062 C105.496094,39.5742188 105.816406,38.71875 105.972656,37.8125 L106.113281,36.96875 C106.144531,36.703125 106.113281,36.5351562 106.019531,36.4648438 C105.925781,36.3945312 105.808594,36.359375 105.667969,36.359375 L102.996094,36.359375 C102.824219,36.359375 102.671875,36.40625 102.539062,36.5 C102.40625,36.59375 102.324219,36.734375 102.292969,36.921875 L102.152344,37.765625 C102.089844,38.15625 101.957031,38.53125 101.753906,38.890625 C101.550781,39.25 101.296875,39.5703125 100.992188,39.8515625 C100.6875,40.1328125 100.339844,40.3554688 99.9492188,40.5195312 C99.5585938,40.6835938 99.1445312,40.765625 98.7070312,40.765625 C98.2695312,40.765625 97.8789062,40.6835938 97.5351562,40.5195312 C97.1914062,40.3554688 96.90625,40.140625 96.6796875,39.875 C96.453125,39.609375 96.296875,39.296875 96.2109375,38.9375 C96.125,38.578125 96.1132812,38.203125 96.1757812,37.8125 L97.0664062,32.8203125 L106.160156,32.8203125 C106.363281,32.8203125 106.546875,32.7539062 106.710938,32.6210938 C106.875,32.4882812 106.972656,32.3125 107.003906,32.09375 L108.058594,26.1875 C108.230469,25.265625 108.214844,24.40625 108.011719,23.609375 C107.808594,22.8125 107.457031,22.1132812 106.957031,21.5117188 C106.457031,20.9101562 105.816406,20.4375 105.035156,20.09375 C104.253906,19.75 103.355469,19.578125 102.339844,19.578125 C101.355469,19.578125 100.394531,19.75 99.4570312,20.09375 C98.5195312,20.4375 97.6757812,20.9101562 96.9257812,21.5117188 C96.1757812,22.1132812 95.5429688,22.8125 95.0273438,23.609375 C94.5117188,24.40625 94.1757812,25.265625 94.0195312,26.1875 L91.9570312,37.8125 C91.8007812,38.71875 91.8398438,39.5742188 92.0742188,40.3789062 C92.3085938,41.1835938 92.6992188,41.8867188 93.2460938,42.4882812 C93.7929688,43.0898438 94.46875,43.5625 95.2734375,43.90625 C96.078125,44.25 96.9726562,44.421875 97.9570312,44.421875 Z M103.535156,29.84375 L97.5820312,29.84375 L98.2148438,26.2109375 C98.2929688,25.8046875 98.4414062,25.421875 98.6601562,25.0625 C98.8789062,24.703125 99.1484375,24.390625 99.46875,24.125 C99.7890625,23.859375 100.148438,23.6445312 100.546875,23.4804688 C100.945312,23.3164062 101.363281,23.234375 101.800781,23.234375 C102.222656,23.234375 102.597656,23.3164062 102.925781,23.4804688 C103.253906,23.6445312 103.523438,23.859375 103.734375,24.125 C103.945312,24.390625 104.089844,24.703125 104.167969,25.0625 C104.246094,25.421875 104.246094,25.8046875 104.167969,26.2109375 L103.535156,29.84375 Z M115.042969,44.421875 C116.058594,44.421875 117.015625,44.25 117.914062,43.90625 C118.8125,43.5625 119.613281,43.0898438 120.316406,42.4882812 C121.019531,41.8867188 121.613281,41.1835938 122.097656,40.3789062 C122.582031,39.5742188 122.902344,38.71875 123.058594,37.8125 L123.199219,36.96875 C123.230469,36.703125 123.199219,36.5351562 123.105469,36.4648438 C123.011719,36.3945312 122.894531,36.359375 122.753906,36.359375 L120.082031,36.359375 C119.910156,36.359375 119.757812,36.40625 119.625,36.5 C119.492188,36.59375 119.410156,36.734375 119.378906,36.921875 L119.238281,37.765625 C119.175781,38.15625 119.042969,38.53125 118.839844,38.890625 C118.636719,39.25 118.382812,39.5703125 118.078125,39.8515625 C117.773438,40.1328125 117.425781,40.3554688 117.035156,40.5195312 C116.644531,40.6835938 116.230469,40.765625 115.792969,40.765625 C115.355469,40.765625 114.964844,40.6835938 114.621094,40.5195312 C114.277344,40.3554688 113.992188,40.140625 113.765625,39.875 C113.539062,39.609375 113.382812,39.296875 113.296875,38.9375 C113.210938,38.578125 113.199219,38.203125 113.261719,37.8125 L114.152344,32.8203125 L123.246094,32.8203125 C123.449219,32.8203125 123.632812,32.7539062 123.796875,32.6210938 C123.960938,32.4882812 124.058594,32.3125 124.089844,32.09375 L125.144531,26.1875 C125.316406,25.265625 125.300781,24.40625 125.097656,23.609375 C124.894531,22.8125 124.542969,22.1132812 124.042969,21.5117188 C123.542969,20.9101562 122.902344,20.4375 122.121094,20.09375 C121.339844,19.75 120.441406,19.578125 119.425781,19.578125 C118.441406,19.578125 117.480469,19.75 116.542969,20.09375 C115.605469,20.4375 114.761719,20.9101562 114.011719,21.5117188 C113.261719,22.1132812 112.628906,22.8125 112.113281,23.609375 C111.597656,24.40625 111.261719,25.265625 111.105469,26.1875 L109.042969,37.8125 C108.886719,38.71875 108.925781,39.5742188 109.160156,40.3789062 C109.394531,41.1835938 109.785156,41.8867188 110.332031,42.4882812 C110.878906,43.0898438 111.554688,43.5625 112.359375,43.90625 C113.164062,44.25 114.058594,44.421875 115.042969,44.421875 Z M120.621094,29.84375 L114.667969,29.84375 L115.300781,26.2109375 C115.378906,25.8046875 115.527344,25.421875 115.746094,25.0625 C115.964844,24.703125 116.234375,24.390625 116.554688,24.125 C116.875,23.859375 117.234375,23.6445312 117.632812,23.4804688 C118.03125,23.3164062 118.449219,23.234375 118.886719,23.234375 C119.308594,23.234375 119.683594,23.3164062 120.011719,23.4804688 C120.339844,23.6445312 120.609375,23.859375 120.820312,24.125 C121.03125,24.390625 121.175781,24.703125 121.253906,25.0625 C121.332031,25.421875 121.332031,25.8046875 121.253906,26.2109375 L120.621094,29.84375 Z M127.722656,51.6171875 C127.972656,51.6171875 128.160156,51.5507812 128.285156,51.4179688 C128.410156,51.2851562 128.496094,51.109375 128.542969,50.890625 L129.925781,42.96875 C130.425781,43.421875 130.984375,43.7773438 131.601562,44.0351562 C132.21875,44.2929688 132.902344,44.421875 133.652344,44.421875 C134.621094,44.421875 135.519531,44.2382812 136.347656,43.8710938 C137.175781,43.5039062 137.910156,43.015625 138.550781,42.40625 C139.191406,41.796875 139.726562,41.0898438 140.15625,40.2851562 C140.585938,39.4804688 140.878906,38.6328125 141.035156,37.7421875 L143.074219,26.234375 C143.230469,25.3125 143.226562,24.4492188 143.0625,23.6445312 C142.898438,22.8398438 142.59375,22.1367188 142.148438,21.5351562 C141.703125,20.9335938 141.132812,20.4570312 140.4375,20.1054688 C139.742188,19.7539062 138.933594,19.578125 138.011719,19.578125 C137.042969,19.578125 136.125,19.7734375 135.257812,20.1640625 C134.390625,20.5546875 133.605469,21.078125 132.902344,21.734375 L132.972656,20.84375 C132.972656,20.515625 132.921875,20.2929688 132.820312,20.1757812 C132.71875,20.0585938 132.550781,20 132.316406,20 L130.441406,20 C130.207031,20 130.023438,20.0703125 129.890625,20.2109375 C129.757812,20.3515625 129.667969,20.53125 129.621094,20.75 L124.324219,50.890625 C124.214844,51.375 124.402344,51.6171875 124.886719,51.6171875 L127.722656,51.6171875 Z M133.300781,40.6953125 C132.878906,40.6953125 132.5,40.6132812 132.164062,40.4492188 C131.828125,40.2851562 131.550781,40.0664062 131.332031,39.7929688 C131.113281,39.5195312 130.964844,39.203125 130.886719,38.84375 C130.808594,38.484375 130.800781,38.109375 130.863281,37.71875 L132.878906,26.28125 C132.957031,25.890625 133.101562,25.515625 133.3125,25.15625 C133.523438,24.796875 133.785156,24.4804688 134.097656,24.2070312 C134.410156,23.9335938 134.761719,23.7148438 135.152344,23.5507812 C135.542969,23.3867188 135.949219,23.3046875 136.371094,23.3046875 C136.808594,23.3046875 137.195312,23.3867188 137.53125,23.5507812 C137.867188,23.7148438 138.144531,23.9335938 138.363281,24.2070312 C138.582031,24.4804688 138.734375,24.796875 138.820312,25.15625 C138.90625,25.515625 138.910156,25.890625 138.832031,26.28125 L136.816406,37.6953125 C136.753906,38.0859375 136.613281,38.4648438 136.394531,38.8320312 C136.175781,39.1992188 135.910156,39.5195312 135.597656,39.7929688 C135.285156,40.0664062 134.933594,40.2851562 134.542969,40.4492188 C134.152344,40.6132812 133.738281,40.6953125 133.300781,40.6953125 Z M149.707031,44.421875 C150.753906,44.421875 151.738281,44.2539062 152.660156,43.9179688 C153.582031,43.5820312 154.40625,43.1171875 155.132812,42.5234375 C155.859375,41.9296875 156.464844,41.2304688 156.949219,40.4257812 C157.433594,39.6210938 157.761719,38.7421875 157.933594,37.7890625 C158.089844,36.9296875 158.070312,36.1367188 157.875,35.4101562 C157.679688,34.6835938 157.367188,34.015625 156.9375,33.40625 C156.507812,32.796875 155.988281,32.234375 155.378906,31.71875 C154.769531,31.203125 154.121094,30.7265625 153.433594,30.2890625 C152.777344,29.8359375 152.21875,29.453125 151.757812,29.140625 C151.296875,28.828125 150.933594,28.5273438 150.667969,28.2382812 C150.402344,27.9492188 150.222656,27.6484375 150.128906,27.3359375 C150.035156,27.0234375 150.027344,26.640625 150.105469,26.1875 C150.183594,25.78125 150.320312,25.3945312 150.515625,25.0273438 C150.710938,24.6601562 150.957031,24.34375 151.253906,24.078125 C151.550781,23.8125 151.886719,23.6015625 152.261719,23.4453125 C152.636719,23.2890625 153.035156,23.2109375 153.457031,23.2109375 C154.285156,23.2109375 154.925781,23.484375 155.378906,24.03125 C155.832031,24.578125 155.980469,25.2734375 155.824219,26.1171875 L155.730469,26.6796875 C155.652344,27.1171875 155.832031,27.3359375 156.269531,27.3359375 L158.683594,27.3359375 C158.949219,27.3359375 159.148438,27.3007812 159.28125,27.2304688 C159.414062,27.1601562 159.496094,27.015625 159.527344,26.796875 L159.644531,26.1875 C159.816406,25.234375 159.816406,24.3515625 159.644531,23.5390625 C159.472656,22.7265625 159.144531,22.0273438 158.660156,21.4414062 C158.175781,20.8554688 157.535156,20.3984375 156.738281,20.0703125 C155.941406,19.7421875 155.003906,19.578125 153.925781,19.578125 C152.925781,19.578125 151.980469,19.7460938 151.089844,20.0820312 C150.199219,20.4179688 149.398438,20.8789062 148.6875,21.4648438 C147.976562,22.0507812 147.382812,22.7382812 146.90625,23.5273438 C146.429688,24.3164062 146.105469,25.171875 145.933594,26.09375 C145.792969,26.890625 145.785156,27.6132812 145.910156,28.2617188 C146.035156,28.9101562 146.25,29.4960938 146.554688,30.0195312 C146.859375,30.5429688 147.238281,31.0234375 147.691406,31.4609375 C148.144531,31.8984375 148.636719,32.3046875 149.167969,32.6796875 C149.824219,33.1953125 150.449219,33.6601562 151.042969,34.0742188 C151.636719,34.4882812 152.144531,34.890625 152.566406,35.28125 C152.988281,35.671875 153.304688,36.0703125 153.515625,36.4765625 C153.726562,36.8828125 153.792969,37.3203125 153.714844,37.7890625 C153.636719,38.2109375 153.488281,38.6015625 153.269531,38.9609375 C153.050781,39.3203125 152.78125,39.6367188 152.460938,39.9101562 C152.140625,40.1835938 151.785156,40.3945312 151.394531,40.5429688 C151.003906,40.6914062 150.605469,40.765625 150.199219,40.765625 C149.761719,40.765625 149.371094,40.6953125 149.027344,40.5546875 C148.683594,40.4140625 148.394531,40.21875 148.160156,39.96875 C147.925781,39.71875 147.761719,39.4179688 147.667969,39.0664062 C147.574219,38.7148438 147.566406,38.3359375 147.644531,37.9296875 L147.738281,37.296875 C147.832031,36.828125 147.683594,36.59375 147.292969,36.59375 L144.785156,36.59375 C144.175781,36.59375 143.832031,36.8203125 143.753906,37.2734375 L143.660156,37.8125 C143.503906,38.671875 143.480469,39.5 143.589844,40.296875 C143.699219,41.09375 143.984375,41.796875 144.445312,42.40625 C144.90625,43.015625 145.5625,43.5039062 146.414062,43.8710938 C147.265625,44.2382812 148.363281,44.421875 149.707031,44.421875 Z M167.402344,44 C167.636719,44 167.828125,43.9765625 167.976563,43.9296875 C168.125,43.8828125 168.238281,43.828125 168.316406,43.765625 C168.394531,43.703125 168.449219,43.6289062 168.480469,43.5429688 C168.511719,43.4570312 168.535156,43.3828125 168.550781,43.3203125 L168.949219,40.90625 C168.964844,40.84375 168.976563,40.7695312 168.984375,40.6835938 C168.992188,40.5976562 168.980469,40.5195312 168.949219,40.4492188 C168.917969,40.3789062 168.867188,40.3164062 168.796875,40.2617188 C168.726563,40.2070312 168.613281,40.1796875 168.457031,40.1796875 L167.800781,40.1796875 C167.003906,40.1796875 166.476563,39.984375 166.21875,39.59375 C165.960938,39.203125 165.886719,38.671875 165.996094,38 L168.503906,23.7734375 L171.363281,23.7734375 C171.566406,23.7734375 171.738281,23.6992188 171.878906,23.5507812 C172.019531,23.4023438 172.105469,23.21875 172.136719,23 L172.535156,20.7265625 C172.582031,20.4765625 172.558594,20.2929688 172.464844,20.1757812 C172.371094,20.0585938 172.246094,20 172.089844,20 L169.160156,20 L170.003906,15.2890625 C170.050781,15.0546875 170.023438,14.875 169.921875,14.75 C169.820313,14.625 169.683594,14.5625 169.511719,14.5625 L169.371094,14.5625 L166.394531,15.40625 C165.972656,15.46875 165.714844,15.7421875 165.621094,16.2265625 L164.941406,20 L163.253906,20 C163.128906,20 162.980469,20.0585938 162.808594,20.1757812 C162.636719,20.2929688 162.527344,20.484375 162.480469,20.75 L162.082031,23 C162.050781,23.25 162.097656,23.4414062 162.222656,23.5742188 C162.347656,23.7070312 162.472656,23.7734375 162.597656,23.7734375 L164.285156,23.7734375 L162.339844,34.7890625 L162.269531,35.09375 L162.269531,35.140625 L161.753906,38.2109375 C161.566406,39.2890625 161.539063,40.1953125 161.671875,40.9296875 C161.804688,41.6640625 162.066406,42.2578125 162.457031,42.7109375 C162.847656,43.1640625 163.355469,43.4921875 163.980469,43.6953125 C164.605469,43.8984375 165.308594,44 166.089844,44 L167.402344,44 Z M176.824219,44.4921875 C177.464844,44.4921875 178.085938,44.390625 178.6875,44.1875 C179.289062,43.984375 179.839844,43.7109375 180.339844,43.3671875 C180.839844,43.0234375 181.273438,42.6289062 181.640625,42.1835938 C182.007812,41.7382812 182.277344,41.2734375 182.449219,40.7890625 L182.144531,43.0390625 C182.175781,43.4140625 182.257812,43.6679688 182.390625,43.8007812 C182.523438,43.9335938 182.730469,44 183.011719,44 L184.582031,44 C184.722656,44 184.878906,43.9335938 185.050781,43.8007812 C185.222656,43.6679688 185.332031,43.46875 185.378906,43.203125 L188.238281,26.984375 C188.457031,25.71875 188.484375,24.6210938 188.320312,23.6914062 C188.15625,22.7617188 187.828125,21.9921875 187.335938,21.3828125 C186.84375,20.7734375 186.199219,20.3203125 185.402344,20.0234375 C184.605469,19.7265625 183.691406,19.578125 182.660156,19.578125 C181.847656,19.578125 181.117188,19.6367188 180.46875,19.7539062 C179.820312,19.8710938 179.222656,20.03125 178.675781,20.234375 C178.128906,20.4375 177.625,20.6679688 177.164062,20.9257812 C176.703125,21.1835938 176.261719,21.453125 175.839844,21.734375 C175.496094,21.96875 175.296875,22.2148438 175.242188,22.4726562 C175.1875,22.7304688 175.207031,22.9453125 175.300781,23.1171875 L176.167969,24.7109375 C176.277344,24.9140625 176.433594,25.015625 176.636719,25.015625 C176.824219,25.015625 177.019531,24.9375 177.222656,24.78125 C177.488281,24.59375 177.761719,24.4101562 178.042969,24.2304688 C178.324219,24.0507812 178.632812,23.8945312 178.96875,23.7617188 C179.304688,23.6289062 179.667969,23.5195312 180.058594,23.4335938 C180.449219,23.3476562 180.886719,23.3046875 181.371094,23.3046875 C182.011719,23.3046875 182.527344,23.4023438 182.917969,23.5976562 C183.308594,23.7929688 183.605469,24.0546875 183.808594,24.3828125 C184.011719,24.7109375 184.128906,25.09375 184.160156,25.53125 C184.191406,25.96875 184.167969,26.4296875 184.089844,26.9140625 L183.644531,29.328125 L180.714844,29.328125 C179.777344,29.328125 178.828125,29.4726562 177.867188,29.7617188 C176.90625,30.0507812 176.015625,30.484375 175.195312,31.0625 C174.375,31.640625 173.667969,32.3671875 173.074219,33.2421875 C172.480469,34.1171875 172.074219,35.140625 171.855469,36.3125 L171.691406,37.2265625 C171.457031,38.5390625 171.449219,39.65625 171.667969,40.578125 C171.886719,41.5 172.25,42.25 172.757812,42.828125 C173.265625,43.40625 173.878906,43.828125 174.597656,44.09375 C175.316406,44.359375 176.058594,44.4921875 176.824219,44.4921875 Z M178.347656,40.7890625 C177.457031,40.7890625 176.773437,40.4648438 176.296875,39.8164062 C175.820312,39.1679688 175.675781,38.3046875 175.863281,37.2265625 L176.003906,36.359375 C176.113281,35.75 176.320312,35.21875 176.625,34.765625 C176.929687,34.3125 177.292969,33.9375 177.714844,33.640625 C178.136719,33.34375 178.597656,33.1210938 179.097656,32.9726562 C179.597656,32.8242188 180.089844,32.75 180.574219,32.75 L183.035156,32.75 L182.542969,35.609375 C182.371094,36.546875 182.128906,37.34375 181.816406,38 C181.503906,38.65625 181.152344,39.1914062 180.761719,39.6054688 C180.371094,40.0195312 179.964844,40.3203125 179.542969,40.5078125 C179.121094,40.6953125 178.722656,40.7890625 178.347656,40.7890625 Z M192.667969,44 C192.902344,44 193.097656,43.9296875 193.253906,43.7890625 C193.410156,43.6484375 193.503906,43.46875 193.535156,43.25 L194.964844,35.09375 L196.394531,33.921875 L199.511719,43.4140625 C199.558594,43.6328125 199.636719,43.7851562 199.746094,43.8710938 C199.855469,43.9570312 199.996094,44 200.167969,44 L203.285156,44 C203.519531,44 203.71875,43.8867188 203.882813,43.6601562 C204.046875,43.4335938 204.082031,43.1796875 203.988281,42.8984375 L199.910156,30.59375 L207.105469,21.3125 C207.324219,21.03125 207.425781,20.7421875 207.410156,20.4453125 C207.394531,20.1484375 207.222656,20 206.894531,20 L203.894531,20 C203.675781,20 203.484375,20.0351562 203.320313,20.1054688 C203.15625,20.1757812 202.996094,20.3203125 202.839844,20.5390625 L196.277344,29.09375 L195.925781,29.65625 L198.972656,12.3125 C199.019531,12.09375 198.988281,11.9179688 198.878906,11.7851562 C198.769531,11.6523438 198.597656,11.5859375 198.363281,11.5859375 L195.574219,11.5859375 C195.136719,11.5859375 194.863281,11.828125 194.753906,12.3125 L189.316406,43.25 C189.285156,43.46875 189.308594,43.6484375 189.386719,43.7890625 C189.464844,43.9296875 189.628906,44 189.878906,44 L192.667969,44 Z M212.566406,44.421875 C213.582031,44.421875 214.539062,44.25 215.4375,43.90625 C216.335937,43.5625 217.136719,43.0898438 217.839844,42.4882812 C218.542969,41.8867188 219.136719,41.1835938 219.621094,40.3789062 C220.105469,39.5742188 220.425781,38.71875 220.582031,37.8125 L220.722656,36.96875 C220.753906,36.703125 220.722656,36.5351562 220.628906,36.4648438 C220.535156,36.3945312 220.417969,36.359375 220.277344,36.359375 L217.605469,36.359375 C217.433594,36.359375 217.28125,36.40625 217.148437,36.5 C217.015625,36.59375 216.933594,36.734375 216.902344,36.921875 L216.761719,37.765625 C216.699219,38.15625 216.566406,38.53125 216.363281,38.890625 C216.160156,39.25 215.90625,39.5703125 215.601562,39.8515625 C215.296875,40.1328125 214.949219,40.3554688 214.558594,40.5195312 C214.167969,40.6835938 213.753906,40.765625 213.316406,40.765625 C212.878906,40.765625 212.488281,40.6835938 212.144531,40.5195312 C211.800781,40.3554688 211.515625,40.140625 211.289062,39.875 C211.0625,39.609375 210.90625,39.296875 210.820312,38.9375 C210.734375,38.578125 210.722656,38.203125 210.785156,37.8125 L211.675781,32.8203125 L220.769531,32.8203125 C220.972656,32.8203125 221.15625,32.7539062 221.320312,32.6210938 C221.484375,32.4882812 221.582031,32.3125 221.613281,32.09375 L222.667969,26.1875 C222.839844,25.265625 222.824219,24.40625 222.621094,23.609375 C222.417969,22.8125 222.066406,22.1132812 221.566406,21.5117188 C221.066406,20.9101562 220.425781,20.4375 219.644531,20.09375 C218.863281,19.75 217.964844,19.578125 216.949219,19.578125 C215.964844,19.578125 215.003906,19.75 214.066406,20.09375 C213.128906,20.4375 212.285156,20.9101562 211.535156,21.5117188 C210.785156,22.1132812 210.152344,22.8125 209.636719,23.609375 C209.121094,24.40625 208.785156,25.265625 208.628906,26.1875 L206.566406,37.8125 C206.410156,38.71875 206.449219,39.5742188 206.683594,40.3789062 C206.917969,41.1835938 207.308594,41.8867188 207.855469,42.4882812 C208.402344,43.0898438 209.078125,43.5625 209.882812,43.90625 C210.6875,44.25 211.582031,44.421875 212.566406,44.421875 Z M218.144531,29.84375 L212.191406,29.84375 L212.824219,26.2109375 C212.902344,25.8046875 213.050781,25.421875 213.269531,25.0625 C213.488281,24.703125 213.757812,24.390625 214.078125,24.125 C214.398437,23.859375 214.757812,23.6445312 215.15625,23.4804688 C215.554687,23.3164062 215.972656,23.234375 216.410156,23.234375 C216.832031,23.234375 217.207031,23.3164062 217.535156,23.4804688 C217.863281,23.6445312 218.132812,23.859375 218.34375,24.125 C218.554687,24.390625 218.699219,24.703125 218.777344,25.0625 C218.855469,25.421875 218.855469,25.8046875 218.777344,26.2109375 L218.144531,29.84375 Z M229.160156,44.421875 C230.207031,44.421875 231.191406,44.2539062 232.113281,43.9179688 C233.035156,43.5820312 233.859375,43.1171875 234.585937,42.5234375 C235.3125,41.9296875 235.917969,41.2304688 236.402344,40.4257812 C236.886719,39.6210938 237.214844,38.7421875 237.386719,37.7890625 C237.542969,36.9296875 237.523437,36.1367188 237.328125,35.4101562 C237.132812,34.6835938 236.820312,34.015625 236.390625,33.40625 C235.960937,32.796875 235.441406,32.234375 234.832031,31.71875 C234.222656,31.203125 233.574219,30.7265625 232.886719,30.2890625 C232.230469,29.8359375 231.671875,29.453125 231.210937,29.140625 C230.75,28.828125 230.386719,28.5273438 230.121094,28.2382812 C229.855469,27.9492188 229.675781,27.6484375 229.582031,27.3359375 C229.488281,27.0234375 229.480469,26.640625 229.558594,26.1875 C229.636719,25.78125 229.773437,25.3945312 229.96875,25.0273438 C230.164062,24.6601562 230.410156,24.34375 230.707031,24.078125 C231.003906,23.8125 231.339844,23.6015625 231.714844,23.4453125 C232.089844,23.2890625 232.488281,23.2109375 232.910156,23.2109375 C233.738281,23.2109375 234.378906,23.484375 234.832031,24.03125 C235.285156,24.578125 235.433594,25.2734375 235.277344,26.1171875 L235.183594,26.6796875 C235.105469,27.1171875 235.285156,27.3359375 235.722656,27.3359375 L238.136719,27.3359375 C238.402344,27.3359375 238.601562,27.3007812 238.734375,27.2304688 C238.867187,27.1601562 238.949219,27.015625 238.980469,26.796875 L239.097656,26.1875 C239.269531,25.234375 239.269531,24.3515625 239.097656,23.5390625 C238.925781,22.7265625 238.597656,22.0273438 238.113281,21.4414062 C237.628906,20.8554688 236.988281,20.3984375 236.191406,20.0703125 C235.394531,19.7421875 234.457031,19.578125 233.378906,19.578125 C232.378906,19.578125 231.433594,19.7460938 230.542969,20.0820312 C229.652344,20.4179688 228.851562,20.8789062 228.140625,21.4648438 C227.429687,22.0507812 226.835937,22.7382812 226.359375,23.5273438 C225.882812,24.3164062 225.558594,25.171875 225.386719,26.09375 C225.246094,26.890625 225.238281,27.6132812 225.363281,28.2617188 C225.488281,28.9101562 225.703125,29.4960938 226.007812,30.0195312 C226.3125,30.5429688 226.691406,31.0234375 227.144531,31.4609375 C227.597656,31.8984375 228.089844,32.3046875 228.621094,32.6796875 C229.277344,33.1953125 229.902344,33.6601562 230.496094,34.0742188 C231.089844,34.4882812 231.597656,34.890625 232.019531,35.28125 C232.441406,35.671875 232.757812,36.0703125 232.96875,36.4765625 C233.179687,36.8828125 233.246094,37.3203125 233.167969,37.7890625 C233.089844,38.2109375 232.941406,38.6015625 232.722656,38.9609375 C232.503906,39.3203125 232.234375,39.6367188 231.914062,39.9101562 C231.59375,40.1835938 231.238281,40.3945312 230.847656,40.5429688 C230.457031,40.6914062 230.058594,40.765625 229.652344,40.765625 C229.214844,40.765625 228.824219,40.6953125 228.480469,40.5546875 C228.136719,40.4140625 227.847656,40.21875 227.613281,39.96875 C227.378906,39.71875 227.214844,39.4179688 227.121094,39.0664062 C227.027344,38.7148438 227.019531,38.3359375 227.097656,37.9296875 L227.191406,37.296875 C227.285156,36.828125 227.136719,36.59375 226.746094,36.59375 L224.238281,36.59375 C223.628906,36.59375 223.285156,36.8203125 223.207031,37.2734375 L223.113281,37.8125 C222.957031,38.671875 222.933594,39.5 223.042969,40.296875 C223.152344,41.09375 223.4375,41.796875 223.898437,42.40625 C224.359375,43.015625 225.015625,43.5039062 225.867187,43.8710938 C226.71875,44.2382812 227.816406,44.421875 229.160156,44.421875 Z" id="sweepstakes" fill="#FFFFFF" fill-rule="nonzero"></path>
                <g id="Group" transform="translate(0.000000, 27.000000)" fill="#008EFF">
                    <circle id="Oval" cx="4" cy="4" r="4"></circle>
                    <circle id="Oval-Copy" cx="16" cy="4" r="4"></circle>
                    <circle id="Oval-Copy-2" cx="28" cy="4" r="4"></circle>
                </g>
            </g>
        </g>
    </g>
</svg>