<?xml version="1.0" encoding="UTF-8"?>
<svg width="16px" height="16px" viewBox="0 0 16 16" version="1.1" xmlns="http://www.w3.org/2000/svg" xmlns:xlink="http://www.w3.org/1999/xlink">
    <title>DA572EB9-7FB5-460C-8C15-85B380A66B3A</title>
    <g id="Page-1" stroke="none" stroke-width="1" fill="none" fill-rule="evenodd">
        <g id="clients" transform="translate(-1360.000000, -42.000000)" fill="#E9E9EA" fill-rule="nonzero">
            <g id="Group-5" transform="translate(1360.000000, 42.000000)">
                <path d="M8,0 C8.49091978,0 8.88888889,0.397969111 8.88888889,0.888888889 C8.88888889,1.34474297 8.54574205,1.72045081 8.10366322,1.77179757 L8,1.77777778 L1.77777778,1.77777778 L1.77777778,14.2222222 L8,14.2222222 C8.45585408,14.2222222 8.83156192,14.5653691 8.88290868,15.0074479 L8.88888889,15.1111111 C8.88888889,15.5669652 8.54574205,15.942673 8.10366322,15.9940198 L8,16 L0.888888889,16 C0.43303481,16 0.0573269683,15.6568532 0.00598020562,15.2147743 L0,15.1111111 L0,0.888888889 C0,0.43303481 0.343146836,0.0573269683 0.785225666,0.00598020562 L0.888888889,0 L8,0 Z M12.1003551,3.74195966 L12.1840949,3.81590508 L15.7396505,7.37146064 C16.0600807,7.69189083 16.0847291,8.19609621 15.8135959,8.54479951 L15.7396505,8.62853936 L12.1840949,12.1840949 C11.8369622,12.5312276 11.2741489,12.5312276 10.9270162,12.1840949 C10.606586,11.8636647 10.5819375,11.3594593 10.8530708,11.0107561 L10.9270162,10.9270162 L12.965,8.888 L6.22222222,8.88888889 C5.73130244,8.88888889 5.33333333,8.49091978 5.33333333,8 C5.33333333,7.54414592 5.67648017,7.16843808 6.118559,7.11709132 L6.22222222,7.11111111 L12.965,7.111 L10.9270162,5.07298381 C10.606586,4.75255362 10.5819375,4.24834823 10.8530708,3.89964494 L10.9270162,3.81590508 C11.2474464,3.4954749 11.7516518,3.47082642 12.1003551,3.74195966 Z" id="Combined-Shape"></path>
            </g>
        </g>
    </g>
</svg>