<svg width="24" height="24" viewBox="0 0 24 24" fill="none" xmlns="http://www.w3.org/2000/svg">
    <g id="reject">
        <path id="Combined Shape" fill-rule="evenodd" clip-rule="evenodd" d="M24 12C24 5.37258 18.6274 0 12 0C5.37258 0 0 5.37258 0 12C0 18.6274 5.37258 24 12 24C18.6274 24 24 18.6274 24 12ZM2 12C2 6.47715 6.47715 2 12 2C17.5228 2 22 6.47715 22 12C22 17.5228 17.5228 22 12 22C6.47715 22 2 17.5228 2 12ZM14.2929 8.29289C14.6834 7.90237 15.3166 7.90237 15.7071 8.29289C16.0676 8.65338 16.0953 9.22061 15.7903 9.6129L15.7071 9.70711L13.4142 12L15.7071 14.2929L15.7903 14.3871C16.0953 14.7794 16.0676 15.3466 15.7071 15.7071C15.3166 16.0976 14.6834 16.0976 14.2929 15.7071L12 13.4142L9.70711 15.7071C9.31658 16.0976 8.68342 16.0976 8.29289 15.7071C7.93241 15.3466 7.90468 14.7794 8.2097 14.3871L8.29289 14.2929L10.5858 12L8.29289 9.70711L8.2097 9.6129C7.90468 9.22061 7.93241 8.65338 8.29289 8.29289C8.68342 7.90237 9.31658 7.90237 9.70711 8.29289L12 10.5858L14.2929 8.29289Z" fill="#E9E9EA"/>
    </g>
</svg>
